<?xml version="1.0" encoding="utf-8"?>
<!-- Generator: Adobe Illustrator 25.2.0, SVG Export Plug-In . SVG Version: 6.00 Build 0)  -->
<svg version="1.1" xmlns="http://www.w3.org/2000/svg" xmlns:xlink="http://www.w3.org/1999/xlink" x="0px" y="0px"
	 viewBox="0 0 927.2 991.2" style="enable-background:new 0 0 927.2 991.2;" xml:space="preserve">
<style type="text/css">
	.st0{fill:#FFFFFF;}
	.st1{fill:#DF674B;}
	.st2{fill:#1A1A1A;}
</style>
<g id="Layer_2">
	<path class="st0" d="M779.4,372.1 M669.6,198.4c-23.5-53.5-57.8-105.7-118-130.7l-2.8,7.7c-15.1-18.5-34.1-34.5-59.8-50.7
		c-14.6-9.2-27.3-9.4-41.3-0.6c-21.6,13.6-46.3,30.9-65,56.2l-0.1,0.2c-1.7-2.3-3.6-10.1-4.6-12.8c-62.2,25.3-95.1,78.4-117.6,130.4
		c-42.1-26.7-55.4-28.1-87.9,15.4c-48.3,62.4-63.1,141-53,225.9c-22.7-3.4-89.4-10-103.1,8.6c-8.4,10-7.7,24.6-3.5,49.8
		c7.1,54.4,21.4,107.7,44.7,157.5c-23.1,8.1-22.8,29.5-15.4,50.5c30.5,100.9,91.3,175.7,180.7,222.3
		c226.6,123.8,575.6,53.4,654.9-216.3c5.2-14.1,13.6-36.9-10.4-50.6c27.1-58.1,44.1-120.2,49.5-184.1l0.1,0
		c2.5-23.4-10.3-34.3-31.5-35c-26-3.4-49.7-2.3-76.9,1.4c14.3-89.8-8.7-192.3-73.5-251.7c-24.8-23.4-38-6.5-60.6,6.5 M384.3,738.3
		 M674.5,198.2l-4.9,0.1L674.5,198.2z"/>
</g>
<g id="Layer_1">
	<path class="st1" d="M634,220.1C634,220,633.9,220.1,634,220.1C633.9,220.1,633.9,220.1,634,220.1c0.7-0.2,1.5-0.4,2.3-0.6
		C635.5,219.6,634.7,219.8,634,220.1z"/>
	<path class="st2" d="M338.6,532l1.7,2.3c5.7,7.7,7.7,11.1,5.6,16.5c-14.8,37.5-19.2,77.1-13.3,117.9
		c-39.5-26.6-72.2-40.5-107.3-45.9c-13-2.1-26.1-3.2-39.3-3.3c-4.1,0-6.3-0.5-7.6-1.7s-1.6-3.1-1.9-6.1
		c-4.6-59.5,4.7-105.3,29.4-144.2c4.5-7.1,7.3-8.3,15-6.5C275.2,473.6,312.6,496.2,338.6,532z M414.8,93.9
		c12.9-17.4,29-32.1,47.4-43.4c5-3.1,7.2-2.8,10.5-0.6c21.2,13.4,37.5,28.7,49.4,46.7c1.6,2.4,2.4,3.9,2.4,4.5
		c-0.2,0.4-0.4,0.7-0.6,1c-22.6,30-37.7,62.5-46.7,101.4c-3.9-1.6-8.1-2.5-12.3-2.5c-3.7,0-7.4,0.6-11,1.7
		c-10.1-40.8-23.6-71.3-43.2-97.6C409.2,103.2,409.2,101.6,414.8,93.9z M294.5,212.6c16.2-44.7,36.3-75.7,64.7-99.3
		c29.5,31.8,46.5,67.9,52,110.2c0.6,5.3-1.1,6.8-3.1,8c-20.7,12.5-37.5,29.1-55.2,46.4c-2.7,2.7-5.5,5.4-8.3,8.1
		c-11.3-25.3-27.4-48.2-47.4-67.3C293.6,215.2,294.2,213.7,294.5,212.6z M217.2,212.8c33.6,21,69.4,48.9,87.9,94.3
		c5.7,14.1,5,24.9-2.6,36.2c-14.5,21.5-24.6,46.7-32.1,79.2c-0.4,1.8-1,3.5-1.7,5.1c-1.7-0.1-3.4-0.4-4.9-1.1
		c-9-3.2-18.1-5.8-27.4-7.9c-36.8-8.8-46.2-5.3-68,24.5c-0.8,1.1-1.6,2.3-2.3,3.6c-0.6,0.9-1.5,2.3-2.1,3c-0.1,0-0.2-0.1-0.4-0.1
		c-8.1-2.6-8.3-4.6-8.4-6.3C148.6,342.6,167.7,271.3,217.2,212.8L217.2,212.8z M46.8,471.5c34.7-3.1,66,3.4,97.6,20
		c-10.5,35.8-19.9,81.6-11.1,131.2l-42.5,11.4C66.3,584.2,51.8,530.9,46.8,471.5z M834,640.1l-7.5-2.3c-10.5-3.4-20.4-6.4-30.7-8.8
		c-0.8-0.2-1.6-0.4-2.3-0.7c-0.1-0.4-0.1-0.8-0.1-1.2c0-1.1,0.2-2.7,0.3-3.8s0.2-2.5,0.3-3.7c1.7-36,3.8-80.2-11.5-124
		c32.1-16,63.8-22,98.6-18.8C875.4,535,860,588.6,834,640.1L834,640.1z M927,469.5c1.9-21.4-7.3-33.3-27.3-35.3l-4.9-0.5
		c-6.2-0.6-12.4-1.3-18.6-1.7c-19.7-1.4-38.8,0.5-60,3.1c4.3-24.5,4.4-47.6,3.1-73.8c-3.8-75.8-29.4-135.8-78.2-183.4
		c-14.5-14.2-29.1-15.6-44.4-4.4c-5.7,4-11.6,7.7-17.6,11.1h1.4c52.8,0.3,86.4,25.4,104.6,55.9c6,9.8,10.6,20.5,13.5,31.7
		c0.9,3.6,1.7,7,2.3,10.5v0.1c3,17.2,2,34.9-2.9,51.7c-0.8,2.6-1.6,5.3-2.6,8c-0.4,1.3-1,2.7-1.5,4c-1.1,2.6-2.3,5.3-3.5,7.9v0.1
		c-1.1,2.1-2.1,4.3-3.3,6.4c-0.2,0.5-0.4,0.9-0.7,1.4v0.1c-0.8,1.3-1.5,2.6-2.3,3.8c-2,3.6-4.2,7-6.6,10.4c-1.1,1.6-2.3,3.2-3.6,4.7
		c1.1,21.2,0.7,42.5-1.1,63.6c-0.1,1.5-0.2,3-0.4,4.5c-0.8,0.9-4,2.1-8.3,3.8c-10.3-25.6-25.4-34.8-41.8-36.2
		c-5.4,1.9-10.9,3.4-16.5,4.5l-0.4,0.2l-1,0.1l-0.4,0.1c-1,0.1-1.9,0.4-2.9,0.4c-1.9,0.3-3.9,0.5-5.8,0.5c-1,0.1-2,0.1-2.9,0.1
		c-2.4,0-4.9-0.1-7.3-0.4c-3,0.9-6,1.8-8.9,2.8c-5.5,1.7-11.1,3.5-16.7,4.9c-1.6-6.5-3.2-13-5.1-19.3c-2.9-2-5.5-4.2-8-6.7
		c-4-3.9-7.5-8.3-10.3-13.2c-0.9-1.6-1.8-3.3-2.6-5c-1.6-3.4-2.9-7-3.9-10.7c-0.5-1.9-0.9-3.8-1.3-5.7c-0.2-0.9-0.3-1.8-0.4-2.8
		c-0.6-4.6-0.7-9.2-0.3-13.8c0-0.9,0.1-1.8,0.2-2.7c-2.1,3.4-4.3,7.1-6.3,11.1c-4.4,8.7-8.2,17.6-11.4,26.8
		c-0.2,0.6-0.4,1.3-0.6,1.9c-0.4,1.1-0.8,2.3-1.2,3.5c-0.5,1.6-1.1,3.4-1.6,5.2c-0.2,0.5-0.4,1.1-0.5,1.6c-0.4,1.1-0.7,2.3-1,3.4
		h0.1c4.8,2.6,9.3,5.8,13.2,9.6l0.4,0.4c14.2,13.9,20.4,33.8,17.3,54.7c-1.5,10.5-5.3,20.5-11.3,29.2c21.6-15.5,48-26.4,84.1-34.9
		c5.7-1.3,7.9-0.6,12.5,7.4c27.2,46.7,35.7,96.5,26,152.1c-57.6-1.8-110.1,14-159.5,48.1c3.6-29.7,6.6-57.8-3.9-84.3
		c-11.8-29.4-2.9-48.4,14.2-65.8c-5.5,2.6-11.4,4.4-17.5,5.4l-8.1,1.5l-0.4,0.1l-16.6,63L545.6,629c0.4,22.9-2.8,45.7-9.5,67.5
		c-7.1,23.6-16.9,46.7-26.7,69c-10.3,35-22.9,65.2-38.1,90.6c16.6-9,31.4-21.1,43.5-35.6c4.8-5.8,9.3-11.2,11.3-14
		c4.6-6.4,9.2-12.9,13.8-19.4c14.8-21.1,28.7-41,46.7-58.3c68.5-65.9,164.4-80.8,250.3-39c8,3.8,8.5,5,5.4,14.3
		c-32.9,98.7-97,167.2-190.8,203.4c-93.5,36.1-183.5,47-269.2,32.8c-3.9,1.8-7.8,3.3-11.8,4.8c-4.9,1.8-9.9,3.3-15,4.6
		s-10.1,2.3-15.3,3.3c-0.3,0.1-0.6,0.1-1.1,0.2H339c-10.2,1.8-20.5,2.7-30.8,2.7h-0.9c-3.2,0-6.3-0.1-9.3-0.4
		c-37.6-2.3-64.8-18-83-38.5c-4.6-5.3-8.7-11-12.3-17c-2.1-3.5-4-7.2-5.8-10.9c-0.8-1.6-1.5-3.1-2.1-4.8s-1.4-3.3-2-5
		c-0.1-0.4-0.2-0.6-0.3-0.9c-0.6-1.6-1.1-3.2-1.6-4.8s-1.1-3.6-1.6-5.3s-0.9-3.5-1.3-5.2c-0.4-1.3-0.6-2.7-0.8-4.1
		c-54.3-40-91.9-97-111.5-169.5c66.3-32.3,127.4-35.8,186.7-10.8c41.6,17.6,75.6,46.2,103.9,87.5c1.2,1.8,2.4,3.6,3.6,5.4
		c2.3-4.8,4.4-10.1,6.4-15.7c0.4-1.3,0.9-2.6,1.4-3.8c0.7-1.8,1.4-3.8,1.9-5.7c0.8-2.4,1.6-5,2.3-7.5c0.2-0.4,0.3-0.8,0.4-1.2
		c0.1-0.4,0.2-0.8,0.4-1.2h-0.1c0.5-1.5,0.9-3.1,1.3-4.6l5.5-20.9c-7.8-23.9-14.5-52.2-14-82.3c0.6-51.7,19.9-94.1,58.8-128.9
		c-2.7-7.9-3.9-16.3-3.5-24.7l0.1-1.4l0.1-1.4l0.2-1.5l0.2-1.3c1.2-7.7,3.6-15.2,7.1-22.1c1.7-3.3,3.7-6.5,5.9-9.4
		c-2,0.9-3.9,2-5.8,3.2c-24.5,15.8-45.7,35.2-66,60.8c-16.7-21.2-34.8-37.5-54.9-49.9c-1.6-1-2.9-1.8-0.9-9.7
		c20.6-81.8,68-144.6,144.7-192c2.8-1.8,4.4-1.7,10.5,2.1c15.5,9.8,30.3,20.8,44.1,32.9c2.2-3.6,4.3-7.2,6.6-10.7
		c6.2-9.5,13-18.5,20.4-27.1c-7.1-5.8-14.3-11.3-21.8-16.6c-2.8-2-3.1-2.8-2.6-6c7-42.9,24.7-79.1,53.8-110.6
		c23.1,18.9,40.7,43.5,55.4,77.6c1.5-0.4,3-0.9,4.6-1.3c3.3-0.9,6.6-1.6,10-2.3c1.8-0.4,3.6-0.7,5.5-1.1c8.7-1.6,17.6-2.5,26.4-2.8
		C650.8,132.7,620,82.4,562,55.2l-8.4-4l-2.8,7.8c-15.4-18.9-34.8-35.3-61.1-51.9c-14.9-9.4-27.9-9.6-42.2-0.6
		c-22.1,13.9-47.3,31.6-66.4,57.4l-0.1,0.2c-0.8-1.2-1.4-2.4-1.8-3.8l-2.9-9.3l-8.8,4.1c-60.2,28.1-88.7,78.5-111.3,129.1
		c-19.7-12.6-33.3-19.3-44.9-19.3c-15,0-26.9,11.1-45,35c-0.4,0.6-0.8,1.2-1.2,1.9c-44.4,59.7-62.1,128.8-54.3,211.2
		c0.2,1.8,0.4,3.6,0.6,5.4c0.6,4.4,1.1,8.4,0.6,12.4c-16-2.8-33.3-3.9-55-3.7c-26.7,0.3-41.8,2.3-50.4,12.5s-7.9,25.1-3.6,50.9
		c0.1,0.6,0.3,1.2,0.5,2c6.7,55,21.9,108.7,45.2,159c-7.6,2.8-13,6.9-16.4,12.5c-7,11.3-3.7,25,0.6,39.2
		c31.2,103.1,93.3,179.6,184.6,227.2c77.8,40.5,158.3,60.8,240.8,60.8c65.9,0,132.9-12.9,201-38.8C770.8,910,846.5,830.5,884.6,716
		c0.7-2.1,1.5-4.3,2.3-6.6c5.3-14.4,13.9-37.7-10.6-51.7c2.1-4.6,4-8.8,5.8-13C906.6,589.1,921.7,529.9,927,469.5L927,469.5z"/>
	<path class="st1" d="M634,220.1C634,220,633.9,220.1,634,220.1C633.9,220.1,633.9,220.1,634,220.1c0.7-0.2,1.5-0.4,2.3-0.6
		C635.5,219.6,634.7,219.8,634,220.1z"/>
	<path class="st1" d="M800.9,282.8L800.9,282.8c-0.6-3.6-1.4-7.1-2.3-10.6c-2.9-11.2-7.4-21.9-13.5-31.7
		c-18.2-30.4-51.8-55.6-104.6-55.9h-1.4c-1.6,0-3.3,0.1-4.9,0.1c-8.8,0.3-17.7,1.2-26.4,2.8c-1.8,0.4-3.7,0.7-5.5,1.1
		c-3.3,0.6-6.7,1.4-10,2.3c-1.6,0.4-3.1,0.9-4.6,1.3c-28.9,8.5-54.5,24-76.6,46.6c-2.8,2.9-5.6,5.8-8.3,8.9
		c-7.4,8.5-14.2,17.6-20.4,27.1c-2.3,3.5-4.4,7-6.6,10.7c-16.8,28.6-30.6,63.1-41.5,103.7l-3.5,13l-4.5,16.7
		c-8.7,4.7-16.3,11.2-22.2,19.2c-2.3,2.9-4.2,6.1-5.9,9.4c-3.6,6.9-6,14.4-7.1,22.1l-0.2,1.3l-0.2,1.5l-0.1,1.4l-0.1,1.4
		c-0.4,8.4,0.7,16.8,3.5,24.7c0.9,2.5,1.9,4.9,3.1,7.2c1.2,2.4,2.5,4.7,4,6.9l-26.1,99.2l-8,30.6l-10.3,38.9l-6.5,24.9l-0.9,3.6
		l-5.5,20.9c-0.4,1.6-0.8,3.1-1.3,4.6h0.1c-0.1,0.4-0.2,0.8-0.4,1.2c-0.1,0.4-0.2,0.8-0.4,1.2c-0.7,2.6-1.5,5.1-2.3,7.5
		c-0.6,1.9-1.2,3.8-1.9,5.7c-0.4,1.3-0.9,2.6-1.4,3.8c-2,5.6-4.1,10.8-6.4,15.7c-2.9,6.5-6.3,12.7-10,18.7c0-0.1,0-0.2,0.1-0.3
		c0.6-4.5,0.7-9,0.3-13.5c-0.1-1.9-0.4-3.9-0.7-5.8c-2.3-13.1-8.6-25.1-18-34.5c-4.5-4.4-9.5-8.1-15-11.1h-0.1
		c-1.9-1-3.7-1.8-5.6-2.7s-4-1.5-6-2.1c-6.2-1.9-12.7-2.9-19.2-2.8c-3.9,0-7.8,0.3-11.7,1l-0.4,0.1l-0.5,0.1h-0.1l-0.4,0.2L282,719
		c-0.7,0.1-1.4,0.3-2.1,0.5c-2.5,0.5-5,1.1-7.4,1.8c-3.1,0.8-6.2,1.8-9.2,2.9c-2,0.8-3.9,1.5-5.8,2.3c-3.4,1.4-6.6,3-9.8,4.7
		c-9.4,5-18,11.3-25.5,18.8c-7.2,7.2-13.4,15.4-18.3,24.2c-13,22.1-19.2,44.8-18.5,67.6c0.2,5.3,0.7,10.6,1.6,15.9
		c0.1,0.4,0.2,0.9,0.3,1.3c0.2,1.4,0.4,2.7,0.8,4.1c0.4,1.7,0.8,3.5,1.3,5.2s1,3.6,1.6,5.3s1,3.3,1.6,4.8c0.1,0.2,0.1,0.5,0.3,0.9
		c0.6,1.7,1.3,3.3,2,5s1.4,3.2,2.1,4.8c1.7,3.7,3.7,7.4,5.8,10.9c3.6,6,7.7,11.7,12.3,17c18.2,20.6,45.4,36.2,83,38.5
		c3.1,0.2,6.1,0.4,9.3,0.4h0.9c10.3,0,20.6-1,30.8-2.7h0.1c0.4-0.1,0.8-0.1,1.1-0.2c5.2-0.9,10.3-2,15.3-3.3s10-2.8,15-4.6
		c4-1.5,8-3.1,11.8-4.8c3.4-1.5,6.5-3.1,9.8-4.8c31.3-16.6,57.8-43.1,79.3-79.5c15.2-25.3,27.8-55.6,38.1-90.6
		c1.3-4.6,2.6-9.3,3.9-14l4.6-17L545.6,629l10.1-38.5l16.6-63l0.4-0.1l8.1-1.4c6-1,11.9-2.9,17.5-5.5c10.7-5,19.9-12.8,26.6-22.6
		c5.9-8.7,9.8-18.7,11.3-29.2c3.1-20.9-3.1-40.8-17.3-54.7l-0.4-0.4c-4-3.8-8.4-7-13.3-9.7h-0.1c0.3-1.1,0.6-2.3,1-3.4
		c0.1-0.6,0.3-1.1,0.5-1.6c0.5-1.8,1.1-3.6,1.6-5.2c0.4-1.2,0.8-2.3,1.2-3.5c0.2-0.6,0.4-1.3,0.6-1.9c3.2-9.2,7-18.1,11.4-26.8
		c2.1-4,4.2-7.7,6.3-11.1c-0.1,0.9-0.2,1.8-0.2,2.7c-0.4,4.6-0.3,9.2,0.3,13.8c0.1,0.9,0.2,1.9,0.4,2.8c0.3,1.9,0.8,3.8,1.3,5.7
		c1,3.7,2.3,7.2,3.9,10.7c0.8,1.7,1.7,3.3,2.6,5c2.8,4.8,6.3,9.3,10.3,13.2c2.5,2.5,5.1,4.7,8,6.7c2.2,1.6,4.5,3,6.8,4.3
		c9.6,5.1,20.3,7.7,31.1,7.8c0.9,0,1.9,0,2.9-0.1c2,0,3.9-0.2,5.8-0.5c1-0.1,1.9-0.3,2.9-0.4l0.4-0.1l1-0.1l0.4-0.2
		c5.6-1.2,11.1-2.7,16.5-4.6c3.7-1.3,7.3-2.7,10.7-4.3c1.1-0.4,2.1-0.8,3.1-1.3c1.8-0.9,3.6-1.9,5.4-2.9c8.8-4.9,17-11,24.2-18.1
		c2.9-2.9,5.6-5.9,8.1-9.1c1.3-1.5,2.5-3.1,3.6-4.7c2.4-3.4,4.6-6.8,6.6-10.4c0.8-1.3,1.5-2.6,2.3-3.8v-0.1c0.3-0.5,0.5-0.9,0.7-1.4
		c1.2-2.1,2.3-4.3,3.3-6.4v-0.1c1.2-2.6,2.4-5.3,3.5-7.9c0.5-1.3,1.1-2.6,1.5-4c1-2.6,1.8-5.3,2.6-8
		C802.9,317.7,803.9,300,800.9,282.8z M774,306.1c-0.1,1.3-0.1,2.6-0.3,4c-0.2,1.8-0.4,3.6-0.6,5.4c-0.3,1.5-0.5,3-0.9,4.5
		c-0.1,0.7-0.3,1.4-0.4,2.1c-0.4,1.7-0.8,3.3-1.3,5c-0.6,2-1.2,3.9-1.9,5.9c-0.2,0.3-0.3,0.6-0.4,0.9c-0.7,1.9-1.5,3.8-2.3,5.6
		c-0.9,2.1-1.9,4.2-3,6.3c-1.1,2.1-2.2,4.1-3.4,6.2c-3.8,6.7-8.4,12.8-13.8,18.2c-1.1,1.1-2.2,2.1-3.3,3.1
		c-8.2,7.1-17.6,12.6-27.9,16.2c-4.7,1.7-9.6,3-14.5,4.1l-0.4,0.1l-0.5,0.1l-1.6,0.2c-1.2,0.2-2.4,0.3-3.6,0.3
		c-0.6,0-1.1,0.1-1.6,0.1c-9.6,0.1-18.9-3.6-25.8-10.3c-2.5-2.4-4.6-5.1-6.2-8.1c-0.7-1.2-1.2-2.4-1.7-3.7c-0.2-0.4-0.4-0.7-0.5-1.1
		c-0.8-2.1-1.4-4.2-1.8-6.4c-1.3-7.1-0.3-14.5,2.8-21.1c0.5-0.9,0.9-1.8,1.4-2.8c1.5-2.6,3.4-5,5.6-7.2c5.3-5.3,12-8.9,19.4-10.4
		c2.5-0.7,4.8-1.8,6.8-3.4c0.9-0.8,1.8-1.6,2.6-2.4c1.6-1.7,2.9-3.6,3.8-5.8c0.5-1,0.9-2,1.2-3.1c0.9-2.7,1.1-5.6,0.7-8.5
		c-0.5-3.4-2-6.5-4.4-9c-3.8-3.9-9.8-5.9-18.2-5.9c-2.1,0-4.1,0.1-6.2,0.4c-2.3,0.2-4.6,0.5-6.8,0.9c-1.2,0.2-2.4,0.4-3.6,0.7
		c-2.4,0.6-4.7,1.3-7,2.1c-9.9,3.7-19,9.3-26.7,16.5c-0.8,0.7-1.6,1.5-2.4,2.4c-1,0.9-2,1.9-2.9,2.9c-6.2,6.4-11.7,13.5-16.5,21
		l-2.6,4.1c-1.7,2.7-3.3,5.6-4.9,8.5c-0.8,1.5-1.6,2.9-2.3,4.5s-1.6,3-2.3,4.6c-1.5,3.1-3,6.3-4.3,9.6c-0.7,1.6-1.4,3.3-2.1,5
		c-0.6,1.7-1.4,3.4-2,5.1c-0.8,2.2-1.6,4.4-2.4,6.7c-2.3,6.8-4.5,13.9-6.4,21.2l-1.1,4.1l-5.5,20.5h0.1c2.2-0.4,4.4-0.5,6.5-0.6
		c7.7-0.1,15.2,2.6,21.1,7.7c0.5,0.4,1,0.9,1.4,1.3c0.6,0.6,1.3,1.3,1.8,2c0.4,0.5,0.8,1,1.2,1.6c1,1.3,1.9,2.8,2.7,4.3
		c0.5,0.9,0.9,1.7,1.2,2.6c0.4,1,0.8,2,1.1,3.1c0.3,1,0.6,2.1,0.8,3.2c0.1,0.2,0.1,0.4,0.2,0.6c0.1,1.1,0.3,2.2,0.3,3.4
		c0.1,0.5,0.1,1,0.1,1.6c0.2,1.4,0.2,2.8,0,4.2c-0.1,1.2-0.2,2.4-0.3,3.6c-2.3,16-12.7,28-27.2,32.3c-1.6,0.5-3.2,0.9-4.8,1.1
		l-20.1,3.5l-6.1,1.1l-0.4,0.1l-0.7,2.8l-16,60.8l-44.3,168.3l-3.8,14.4c-4.7,18.5-10.7,36.6-17.8,54.2c-0.9,2.3-1.9,4.6-2.9,6.8
		s-2,4.6-3.1,6.8c-1.5,3.3-3.1,6.6-4.8,9.8c-0.9,1.8-1.8,3.6-2.8,5.4c-3,5.4-6,10.6-9.2,15.7c-1.2,1.8-2.4,3.7-3.7,5.6
		c-3.6,5.3-7.4,10.5-11.4,15.3c-1.1,1.4-2.3,2.8-3.5,4.1c-1.5,1.8-3.1,3.5-4.6,5.2c-1.1,1.1-2.2,2.3-3.3,3.4
		c-0.9,0.9-1.8,1.7-2.6,2.6c-1.4,1.4-2.9,2.8-4.4,4.1c-0.9,0.8-1.9,1.7-2.9,2.6c-1.2,1.1-2.4,2.1-3.7,3.1
		c-6.4,5.3-13.3,10-20.6,14.1c-1.3,0.7-2.6,1.4-4,2.1c-5.1,2.6-10.3,5-15.6,7.1c-2.9,1.1-5.9,2.2-9,3.1c-6.4,2.1-13,3.7-19.6,4.8
		c-2.4,0.4-4.8,0.8-7.1,1.1H328c-1.4,0.2-2.8,0.4-4.2,0.5h0c-0.2,0.1-0.4,0.1-0.6,0.1c-1.2,0.1-2.4,0.2-3.6,0.4
		c-1.6,0.1-3.3,0.2-4.9,0.3c-2.2,0.1-4.3,0.2-6.4,0.2c-1.9,0-3.9-0.1-5.8-0.2c-1.1,0-2.2-0.1-3.3-0.2c-1.3,0-2.6-0.2-3.9-0.4
		c-0.9-0.1-1.9-0.1-2.8-0.3c-3.6-0.4-7.1-1.1-10.6-1.9c-1.2-0.2-2.3-0.5-3.5-0.8c-3.2-0.8-6.3-1.9-9.4-3.1c-1-0.4-2-0.8-3-1.3
		c-3.4-1.4-6.7-3-9.8-4.9c-1.2-0.7-2.3-1.3-3.4-2.1c-5-3.3-9.7-7.1-13.8-11.5c-1.2-1.1-2.3-2.3-3.3-3.6c-3.6-4.1-6.7-8.5-9.4-13.2
		c-0.3-0.5-0.6-1-0.8-1.5c-1.1-1.9-2.1-3.9-3.1-5.9c-3.5-7.5-5.9-15.5-7.3-23.7c-3.7-21.4,0.8-43.1,13.4-64.4v-0.1
		c2.3-4,4.9-7.9,7.8-11.5V777c1.9-2.3,4-4.6,6.1-6.7c11.7-11.7,26.9-19.6,45.5-23.4l0.4-0.1h0.1l0.4-0.1c6.3-1.2,12.7-0.7,18.7,1.3
		c0.5,0.2,1.1,0.3,1.6,0.6c4.6,1.7,8.8,4.4,12.2,7.8c5.4,5.2,9,12,10.2,19.4c2.1,11.3-1.6,23-9.7,31.1c-3.7,3.7-8.1,6.6-13,8.5
		c-2,0.9-4.2,1.5-6.3,1.9c-3.1,0.9-5.9,2.4-8.3,4.5c-1.2,1.2-2.4,2.5-3.4,3.9v0.1c-0.6,1-1.1,1.9-1.6,2.9c-1.7,3.6-2.4,7.6-1.9,11.6
		c0.2,1.2,0.5,2.4,0.9,3.5c0.7,2.1,1.9,4,3.5,5.6c1.6,1.6,3.5,2.9,5.6,3.7c4,1.5,8.3,2.2,12.6,2.1c1.9,0,4-0.1,6.1-0.3
		c2.3-0.2,4.6-0.5,6.9-0.9c1.2-0.2,2.4-0.4,3.6-0.7s2.4-0.6,3.6-1c7.3-2.2,14.2-5.6,20.5-10c2.1-1.5,4.2-3.1,6.3-4.8
		c0,0,0.1-0.1,0.1-0.1c1.3-1.1,2.6-2.2,3.8-3.3c2.3-2.1,4.6-4.4,6.8-6.8v-0.1c3.4-3.6,6.5-7.6,9.8-11.8v-0.1
		c2.1-2.8,4.1-5.8,6.1-8.9c1.4-2.3,2.9-4.6,4.2-7.1c3-5.2,5.8-10.8,8.5-16.7c0.9-1.8,1.7-3.8,2.5-5.7c0.7-1.6,1.4-3.2,2-4.9
		c0.6-1.3,1.1-2.5,1.5-3.8c1.5-3.7,2.9-7.6,4.1-11.5c0.1-0.2,0.1-0.5,0.2-0.7c1.3-4.1,2.6-8.2,3.7-12.5c0.4-1.4,0.8-2.8,1.1-4.3
		l6.5-24.6l20.1-76.5l34.7-132.1c-1-0.6-1.9-1.3-2.7-2.1c-2.4-2.2-4.5-4.7-6.2-7.5c-0.4-0.8-0.9-1.6-1.4-2.6
		c-0.1-0.2-0.2-0.4-0.3-0.6c-0.4-0.8-0.7-1.6-1-2.5c-0.3-1-0.7-2.1-1-3.1c0-0.1,0-0.2-0.1-0.4c-0.3-1.2-0.5-2.5-0.7-3.8
		c-0.3-2.3-0.4-4.7-0.3-7l0.1-1.3l0.2-1.4c0.2-1.6,0.5-3.2,1-4.7c0-0.2,0.1-0.5,0.1-0.7c0.4-1.3,0.8-2.5,1.2-3.6
		c0.1-0.4,0.4-0.9,0.5-1.3c0.6-1.4,1.2-2.8,2-4.1v-0.1c0.8-1.4,1.7-2.8,2.6-4s2.1-2.6,3.1-3.7c2.2-2.3,4.7-4.4,7.4-6
		c0.2-0.1,0.3-0.3,0.5-0.4c1.4-0.8,2.8-1.6,4.3-2.3c1.3-0.6,2.6-1.1,3.9-1.6s2.8-0.9,4.2-1.3h0.1l6.8-25.5l4.8-17.9
		c1.2-4.6,2.5-9,3.8-13.5c1-3.5,2.1-6.8,3.1-10.2c0.3-1.2,0.8-2.5,1.2-3.7c1.1-3.5,2.2-6.8,3.4-10.2c1.3-3.9,2.8-7.8,4.3-11.5
		c1.3-3.4,2.6-6.7,4.1-10c2.7-6.5,5.6-12.9,8.6-19c1-2.1,2-4.1,3.1-6.1c1.1-2.2,2.3-4.4,3.4-6.4v-0.1c1.2-2.1,2.3-4.1,3.6-6.1
		c2.4-4,4.8-7.9,7.4-11.7c1.2-1.8,2.5-3.6,3.8-5.4c4-5.7,8.2-11.1,12.8-16.2l0.2-0.2c2.1-2.5,4.3-4.8,6.6-7.1
		c2.3-2.3,4.3-4.3,6.5-6.4c0.5-0.4,1-0.9,1.5-1.3c2.1-1.9,4.2-3.7,6.3-5.4c0.1-0.1,0.1-0.1,0.2-0.1c2.4-1.9,4.9-3.8,7.4-5.6
		c0.1-0.1,0.1-0.1,0.2-0.1c2.2-1.6,4.6-3.1,6.8-4.6h0.1c0.9-0.6,1.8-1.1,2.7-1.6c1.8-1.1,3.6-2.1,5.4-3.1c0.6-0.4,1.2-0.8,1.8-1.1
		c2.3-1.2,4.7-2.4,7.1-3.4c0.1-0.1,0.1-0.1,0.2-0.1c2.8-1.3,5.5-2.4,8.4-3.5c1.7-0.6,3.3-1.2,5.1-1.8l2.7-0.9c0,0,0-0.1,0.1-0.1
		c0,0,0,0,0,0c0.7-0.2,1.5-0.4,2.3-0.6l2.2-0.6c0.9-0.3,1.9-0.6,2.9-0.8c1.4-0.4,2.8-0.7,4.3-1c2.2-0.5,4.6-1,6.8-1.4
		c4.8-0.9,9.5-1.5,14-1.9s8.8-0.6,13-0.6c1.9,0,3.8,0.1,5.8,0.1c1.6,0.1,3.2,0.1,4.8,0.3c1.1,0.1,2.1,0.2,3.2,0.4
		c1.8,0.1,3.6,0.4,5.3,0.7c4.3,0.6,8.6,1.6,12.8,2.8c2.2,0.7,4.4,1.4,6.5,2.3c1.6,0.6,3.1,1.2,4.6,1.9s2.9,1.4,4.3,2.1
		s2.9,1.5,4.3,2.3c1.1,0.6,2.2,1.3,3.2,2c5.2,3.3,10,7.2,14.2,11.6c13.5,13.7,21.2,31.1,24.2,48.2c0.5,2.4,0.8,4.8,0.9,7.2
		C774.1,298.6,774.2,302.3,774,306.1z"/>
	<path class="st0" d="M636.3,219.4c-0.8,0.2-1.6,0.4-2.4,0.7c0,0,0-0.1,0.1-0.1c0,0,0,0,0,0C634.7,219.8,635.5,219.6,636.3,219.4z"
		/>
</g>
</svg>
